<mxfile host="Electron" agent="Mozilla/5.0 (Windows NT 10.0; Win64; x64) AppleWebKit/537.36 (KHTML, like Gecko) draw.io/24.7.17 Chrome/128.0.6613.36 Electron/32.0.1 Safari/537.36" version="24.7.17">
  <diagram name="Страница — 1" id="6dKcLjjxsjvN5Ayz9n6f">
    <mxGraphModel dx="1036" dy="614" grid="1" gridSize="10" guides="1" tooltips="1" connect="1" arrows="1" fold="1" page="1" pageScale="1" pageWidth="827" pageHeight="1169" math="0" shadow="0">
      <root>
        <mxCell id="0" />
        <mxCell id="1" parent="0" />
        <mxCell id="OhsWGD3y-2vGc2H0MwbR-51" value="" style="childLayout=tableLayout;recursiveResize=0;shadow=0;fillColor=none;" parent="1" vertex="1">
          <mxGeometry x="160" y="690" width="520" height="140" as="geometry" />
        </mxCell>
        <mxCell id="OhsWGD3y-2vGc2H0MwbR-52" value="" style="shape=tableRow;horizontal=0;startSize=0;swimlaneHead=0;swimlaneBody=0;top=0;left=0;bottom=0;right=0;dropTarget=0;collapsible=0;recursiveResize=0;expand=0;fontStyle=0;fillColor=none;strokeColor=inherit;" parent="OhsWGD3y-2vGc2H0MwbR-51" vertex="1">
          <mxGeometry width="520" height="47" as="geometry" />
        </mxCell>
        <mxCell id="OhsWGD3y-2vGc2H0MwbR-53" value="&lt;b&gt;Родительская сущность&lt;/b&gt;" style="connectable=0;recursiveResize=0;strokeColor=inherit;fillColor=none;align=center;whiteSpace=wrap;html=1;" parent="OhsWGD3y-2vGc2H0MwbR-52" vertex="1">
          <mxGeometry width="173" height="47" as="geometry">
            <mxRectangle width="173" height="47" as="alternateBounds" />
          </mxGeometry>
        </mxCell>
        <mxCell id="OhsWGD3y-2vGc2H0MwbR-54" value="&lt;b&gt;Атрибут&lt;/b&gt;" style="connectable=0;recursiveResize=0;strokeColor=inherit;fillColor=none;align=center;whiteSpace=wrap;html=1;" parent="OhsWGD3y-2vGc2H0MwbR-52" vertex="1">
          <mxGeometry x="173" width="174" height="47" as="geometry">
            <mxRectangle width="174" height="47" as="alternateBounds" />
          </mxGeometry>
        </mxCell>
        <mxCell id="OhsWGD3y-2vGc2H0MwbR-55" value="&lt;b&gt;Описание&lt;/b&gt;" style="connectable=0;recursiveResize=0;strokeColor=inherit;fillColor=none;align=center;whiteSpace=wrap;html=1;" parent="OhsWGD3y-2vGc2H0MwbR-52" vertex="1">
          <mxGeometry x="347" width="173" height="47" as="geometry">
            <mxRectangle width="173" height="47" as="alternateBounds" />
          </mxGeometry>
        </mxCell>
        <mxCell id="OhsWGD3y-2vGc2H0MwbR-56" style="shape=tableRow;horizontal=0;startSize=0;swimlaneHead=0;swimlaneBody=0;top=0;left=0;bottom=0;right=0;dropTarget=0;collapsible=0;recursiveResize=0;expand=0;fontStyle=0;fillColor=none;strokeColor=inherit;" parent="OhsWGD3y-2vGc2H0MwbR-51" vertex="1">
          <mxGeometry y="47" width="520" height="46" as="geometry" />
        </mxCell>
        <mxCell id="OhsWGD3y-2vGc2H0MwbR-57" value="User" style="connectable=0;recursiveResize=0;strokeColor=inherit;fillColor=none;align=center;whiteSpace=wrap;html=1;" parent="OhsWGD3y-2vGc2H0MwbR-56" vertex="1">
          <mxGeometry width="173" height="46" as="geometry">
            <mxRectangle width="173" height="46" as="alternateBounds" />
          </mxGeometry>
        </mxCell>
        <mxCell id="OhsWGD3y-2vGc2H0MwbR-58" value="---" style="connectable=0;recursiveResize=0;strokeColor=inherit;fillColor=none;align=center;whiteSpace=wrap;html=1;" parent="OhsWGD3y-2vGc2H0MwbR-56" vertex="1">
          <mxGeometry x="173" width="174" height="46" as="geometry">
            <mxRectangle width="174" height="46" as="alternateBounds" />
          </mxGeometry>
        </mxCell>
        <mxCell id="OhsWGD3y-2vGc2H0MwbR-59" value="Объект пользователя" style="connectable=0;recursiveResize=0;strokeColor=inherit;fillColor=none;align=center;whiteSpace=wrap;html=1;" parent="OhsWGD3y-2vGc2H0MwbR-56" vertex="1">
          <mxGeometry x="347" width="173" height="46" as="geometry">
            <mxRectangle width="173" height="46" as="alternateBounds" />
          </mxGeometry>
        </mxCell>
        <mxCell id="OhsWGD3y-2vGc2H0MwbR-60" style="shape=tableRow;horizontal=0;startSize=0;swimlaneHead=0;swimlaneBody=0;top=0;left=0;bottom=0;right=0;dropTarget=0;collapsible=0;recursiveResize=0;expand=0;fontStyle=0;fillColor=none;strokeColor=inherit;" parent="OhsWGD3y-2vGc2H0MwbR-51" vertex="1">
          <mxGeometry y="93" width="520" height="47" as="geometry" />
        </mxCell>
        <mxCell id="OhsWGD3y-2vGc2H0MwbR-61" value="" style="connectable=0;recursiveResize=0;strokeColor=inherit;fillColor=none;align=center;whiteSpace=wrap;html=1;" parent="OhsWGD3y-2vGc2H0MwbR-60" vertex="1">
          <mxGeometry width="173" height="47" as="geometry">
            <mxRectangle width="173" height="47" as="alternateBounds" />
          </mxGeometry>
        </mxCell>
        <mxCell id="OhsWGD3y-2vGc2H0MwbR-62" value="Name" style="connectable=0;recursiveResize=0;strokeColor=inherit;fillColor=none;align=center;whiteSpace=wrap;html=1;" parent="OhsWGD3y-2vGc2H0MwbR-60" vertex="1">
          <mxGeometry x="173" width="174" height="47" as="geometry">
            <mxRectangle width="174" height="47" as="alternateBounds" />
          </mxGeometry>
        </mxCell>
        <mxCell id="OhsWGD3y-2vGc2H0MwbR-63" value="Имя пользователя" style="connectable=0;recursiveResize=0;strokeColor=inherit;fillColor=none;align=center;whiteSpace=wrap;html=1;" parent="OhsWGD3y-2vGc2H0MwbR-60" vertex="1">
          <mxGeometry x="347" width="173" height="47" as="geometry">
            <mxRectangle width="173" height="47" as="alternateBounds" />
          </mxGeometry>
        </mxCell>
        <mxCell id="OhsWGD3y-2vGc2H0MwbR-64" value="Объект User (Пользователь)" style="text;html=1;align=left;verticalAlign=middle;resizable=0;points=[];autosize=1;strokeColor=none;fillColor=none;fontStyle=1" parent="1" vertex="1">
          <mxGeometry x="160" y="660" width="180" height="30" as="geometry" />
        </mxCell>
        <mxCell id="OhsWGD3y-2vGc2H0MwbR-65" value="" style="childLayout=tableLayout;recursiveResize=0;shadow=0;fillColor=none;" parent="1" vertex="1">
          <mxGeometry x="160" y="830" width="520" height="140" as="geometry" />
        </mxCell>
        <mxCell id="OhsWGD3y-2vGc2H0MwbR-66" value="" style="shape=tableRow;horizontal=0;startSize=0;swimlaneHead=0;swimlaneBody=0;top=0;left=0;bottom=0;right=0;dropTarget=0;collapsible=0;recursiveResize=0;expand=0;fontStyle=0;fillColor=none;strokeColor=inherit;" parent="OhsWGD3y-2vGc2H0MwbR-65" vertex="1">
          <mxGeometry width="520" height="47" as="geometry" />
        </mxCell>
        <mxCell id="OhsWGD3y-2vGc2H0MwbR-67" value="" style="connectable=0;recursiveResize=0;strokeColor=inherit;fillColor=none;align=center;whiteSpace=wrap;html=1;" parent="OhsWGD3y-2vGc2H0MwbR-66" vertex="1">
          <mxGeometry width="173" height="47" as="geometry">
            <mxRectangle width="173" height="47" as="alternateBounds" />
          </mxGeometry>
        </mxCell>
        <mxCell id="OhsWGD3y-2vGc2H0MwbR-68" value="Surname" style="connectable=0;recursiveResize=0;strokeColor=inherit;fillColor=none;align=center;whiteSpace=wrap;html=1;" parent="OhsWGD3y-2vGc2H0MwbR-66" vertex="1">
          <mxGeometry x="173" width="174" height="47" as="geometry">
            <mxRectangle width="174" height="47" as="alternateBounds" />
          </mxGeometry>
        </mxCell>
        <mxCell id="OhsWGD3y-2vGc2H0MwbR-69" value="Фамилия пользователя" style="connectable=0;recursiveResize=0;strokeColor=inherit;fillColor=none;align=center;whiteSpace=wrap;html=1;" parent="OhsWGD3y-2vGc2H0MwbR-66" vertex="1">
          <mxGeometry x="347" width="173" height="47" as="geometry">
            <mxRectangle width="173" height="47" as="alternateBounds" />
          </mxGeometry>
        </mxCell>
        <mxCell id="OhsWGD3y-2vGc2H0MwbR-70" style="shape=tableRow;horizontal=0;startSize=0;swimlaneHead=0;swimlaneBody=0;top=0;left=0;bottom=0;right=0;dropTarget=0;collapsible=0;recursiveResize=0;expand=0;fontStyle=0;fillColor=none;strokeColor=inherit;" parent="OhsWGD3y-2vGc2H0MwbR-65" vertex="1">
          <mxGeometry y="47" width="520" height="46" as="geometry" />
        </mxCell>
        <mxCell id="OhsWGD3y-2vGc2H0MwbR-71" value="" style="connectable=0;recursiveResize=0;strokeColor=inherit;fillColor=none;align=center;whiteSpace=wrap;html=1;" parent="OhsWGD3y-2vGc2H0MwbR-70" vertex="1">
          <mxGeometry width="173" height="46" as="geometry">
            <mxRectangle width="173" height="46" as="alternateBounds" />
          </mxGeometry>
        </mxCell>
        <mxCell id="OhsWGD3y-2vGc2H0MwbR-72" value="Phone" style="connectable=0;recursiveResize=0;strokeColor=inherit;fillColor=none;align=center;whiteSpace=wrap;html=1;" parent="OhsWGD3y-2vGc2H0MwbR-70" vertex="1">
          <mxGeometry x="173" width="174" height="46" as="geometry">
            <mxRectangle width="174" height="46" as="alternateBounds" />
          </mxGeometry>
        </mxCell>
        <mxCell id="OhsWGD3y-2vGc2H0MwbR-73" value="Контактный номер телефона пользователя" style="connectable=0;recursiveResize=0;strokeColor=inherit;fillColor=none;align=center;whiteSpace=wrap;html=1;" parent="OhsWGD3y-2vGc2H0MwbR-70" vertex="1">
          <mxGeometry x="347" width="173" height="46" as="geometry">
            <mxRectangle width="173" height="46" as="alternateBounds" />
          </mxGeometry>
        </mxCell>
        <mxCell id="OhsWGD3y-2vGc2H0MwbR-74" style="shape=tableRow;horizontal=0;startSize=0;swimlaneHead=0;swimlaneBody=0;top=0;left=0;bottom=0;right=0;dropTarget=0;collapsible=0;recursiveResize=0;expand=0;fontStyle=0;fillColor=none;strokeColor=inherit;" parent="OhsWGD3y-2vGc2H0MwbR-65" vertex="1">
          <mxGeometry y="93" width="520" height="47" as="geometry" />
        </mxCell>
        <mxCell id="OhsWGD3y-2vGc2H0MwbR-75" value="" style="connectable=0;recursiveResize=0;strokeColor=inherit;fillColor=none;align=center;whiteSpace=wrap;html=1;" parent="OhsWGD3y-2vGc2H0MwbR-74" vertex="1">
          <mxGeometry width="173" height="47" as="geometry">
            <mxRectangle width="173" height="47" as="alternateBounds" />
          </mxGeometry>
        </mxCell>
        <mxCell id="OhsWGD3y-2vGc2H0MwbR-76" value="Email" style="connectable=0;recursiveResize=0;strokeColor=inherit;fillColor=none;align=center;whiteSpace=wrap;html=1;" parent="OhsWGD3y-2vGc2H0MwbR-74" vertex="1">
          <mxGeometry x="173" width="174" height="47" as="geometry">
            <mxRectangle width="174" height="47" as="alternateBounds" />
          </mxGeometry>
        </mxCell>
        <mxCell id="OhsWGD3y-2vGc2H0MwbR-77" value="Контактный адрес электронной почты пользователя" style="connectable=0;recursiveResize=0;strokeColor=inherit;fillColor=none;align=center;whiteSpace=wrap;html=1;" parent="OhsWGD3y-2vGc2H0MwbR-74" vertex="1">
          <mxGeometry x="347" width="173" height="47" as="geometry">
            <mxRectangle width="173" height="47" as="alternateBounds" />
          </mxGeometry>
        </mxCell>
        <mxCell id="-_8xSM2bTVe2GGrsesYv-1" value="" style="childLayout=tableLayout;recursiveResize=0;shadow=0;fillColor=none;" parent="1" vertex="1">
          <mxGeometry x="160" y="1040" width="520" height="140" as="geometry" />
        </mxCell>
        <mxCell id="-_8xSM2bTVe2GGrsesYv-2" value="" style="shape=tableRow;horizontal=0;startSize=0;swimlaneHead=0;swimlaneBody=0;top=0;left=0;bottom=0;right=0;dropTarget=0;collapsible=0;recursiveResize=0;expand=0;fontStyle=0;fillColor=none;strokeColor=inherit;" parent="-_8xSM2bTVe2GGrsesYv-1" vertex="1">
          <mxGeometry width="520" height="47" as="geometry" />
        </mxCell>
        <mxCell id="-_8xSM2bTVe2GGrsesYv-3" value="&lt;b&gt;Родительская сущность&lt;/b&gt;" style="connectable=0;recursiveResize=0;strokeColor=inherit;fillColor=none;align=center;whiteSpace=wrap;html=1;" parent="-_8xSM2bTVe2GGrsesYv-2" vertex="1">
          <mxGeometry width="173" height="47" as="geometry">
            <mxRectangle width="173" height="47" as="alternateBounds" />
          </mxGeometry>
        </mxCell>
        <mxCell id="-_8xSM2bTVe2GGrsesYv-4" value="&lt;b&gt;Атрибут&lt;/b&gt;" style="connectable=0;recursiveResize=0;strokeColor=inherit;fillColor=none;align=center;whiteSpace=wrap;html=1;" parent="-_8xSM2bTVe2GGrsesYv-2" vertex="1">
          <mxGeometry x="173" width="174" height="47" as="geometry">
            <mxRectangle width="174" height="47" as="alternateBounds" />
          </mxGeometry>
        </mxCell>
        <mxCell id="-_8xSM2bTVe2GGrsesYv-5" value="&lt;b&gt;Описание&lt;/b&gt;" style="connectable=0;recursiveResize=0;strokeColor=inherit;fillColor=none;align=center;whiteSpace=wrap;html=1;" parent="-_8xSM2bTVe2GGrsesYv-2" vertex="1">
          <mxGeometry x="347" width="173" height="47" as="geometry">
            <mxRectangle width="173" height="47" as="alternateBounds" />
          </mxGeometry>
        </mxCell>
        <mxCell id="-_8xSM2bTVe2GGrsesYv-6" style="shape=tableRow;horizontal=0;startSize=0;swimlaneHead=0;swimlaneBody=0;top=0;left=0;bottom=0;right=0;dropTarget=0;collapsible=0;recursiveResize=0;expand=0;fontStyle=0;fillColor=none;strokeColor=inherit;" parent="-_8xSM2bTVe2GGrsesYv-1" vertex="1">
          <mxGeometry y="47" width="520" height="46" as="geometry" />
        </mxCell>
        <mxCell id="-_8xSM2bTVe2GGrsesYv-7" value="Real_estate" style="connectable=0;recursiveResize=0;strokeColor=inherit;fillColor=none;align=center;whiteSpace=wrap;html=1;" parent="-_8xSM2bTVe2GGrsesYv-6" vertex="1">
          <mxGeometry width="173" height="46" as="geometry">
            <mxRectangle width="173" height="46" as="alternateBounds" />
          </mxGeometry>
        </mxCell>
        <mxCell id="-_8xSM2bTVe2GGrsesYv-8" value="---" style="connectable=0;recursiveResize=0;strokeColor=inherit;fillColor=none;align=center;whiteSpace=wrap;html=1;" parent="-_8xSM2bTVe2GGrsesYv-6" vertex="1">
          <mxGeometry x="173" width="174" height="46" as="geometry">
            <mxRectangle width="174" height="46" as="alternateBounds" />
          </mxGeometry>
        </mxCell>
        <mxCell id="-_8xSM2bTVe2GGrsesYv-9" value="Объект недвижимости" style="connectable=0;recursiveResize=0;strokeColor=inherit;fillColor=none;align=center;whiteSpace=wrap;html=1;" parent="-_8xSM2bTVe2GGrsesYv-6" vertex="1">
          <mxGeometry x="347" width="173" height="46" as="geometry">
            <mxRectangle width="173" height="46" as="alternateBounds" />
          </mxGeometry>
        </mxCell>
        <mxCell id="-_8xSM2bTVe2GGrsesYv-10" style="shape=tableRow;horizontal=0;startSize=0;swimlaneHead=0;swimlaneBody=0;top=0;left=0;bottom=0;right=0;dropTarget=0;collapsible=0;recursiveResize=0;expand=0;fontStyle=0;fillColor=none;strokeColor=inherit;" parent="-_8xSM2bTVe2GGrsesYv-1" vertex="1">
          <mxGeometry y="93" width="520" height="47" as="geometry" />
        </mxCell>
        <mxCell id="-_8xSM2bTVe2GGrsesYv-11" value="" style="connectable=0;recursiveResize=0;strokeColor=inherit;fillColor=none;align=center;whiteSpace=wrap;html=1;" parent="-_8xSM2bTVe2GGrsesYv-10" vertex="1">
          <mxGeometry width="173" height="47" as="geometry">
            <mxRectangle width="173" height="47" as="alternateBounds" />
          </mxGeometry>
        </mxCell>
        <mxCell id="-_8xSM2bTVe2GGrsesYv-12" value="Description" style="connectable=0;recursiveResize=0;strokeColor=inherit;fillColor=none;align=center;whiteSpace=wrap;html=1;" parent="-_8xSM2bTVe2GGrsesYv-10" vertex="1">
          <mxGeometry x="173" width="174" height="47" as="geometry">
            <mxRectangle width="174" height="47" as="alternateBounds" />
          </mxGeometry>
        </mxCell>
        <mxCell id="-_8xSM2bTVe2GGrsesYv-13" value="Текстовое описание объекта недвижимости" style="connectable=0;recursiveResize=0;strokeColor=inherit;fillColor=none;align=center;whiteSpace=wrap;html=1;" parent="-_8xSM2bTVe2GGrsesYv-10" vertex="1">
          <mxGeometry x="347" width="173" height="47" as="geometry">
            <mxRectangle width="173" height="47" as="alternateBounds" />
          </mxGeometry>
        </mxCell>
        <mxCell id="-_8xSM2bTVe2GGrsesYv-14" value="Объект Real_estate (Недвижимость)" style="text;html=1;align=left;verticalAlign=middle;resizable=0;points=[];autosize=1;strokeColor=none;fillColor=none;fontStyle=1" parent="1" vertex="1">
          <mxGeometry x="160" y="1010" width="230" height="30" as="geometry" />
        </mxCell>
        <mxCell id="-_8xSM2bTVe2GGrsesYv-15" value="" style="childLayout=tableLayout;recursiveResize=0;shadow=0;fillColor=none;" parent="1" vertex="1">
          <mxGeometry x="160" y="1180" width="520" height="140" as="geometry" />
        </mxCell>
        <mxCell id="-_8xSM2bTVe2GGrsesYv-16" value="" style="shape=tableRow;horizontal=0;startSize=0;swimlaneHead=0;swimlaneBody=0;top=0;left=0;bottom=0;right=0;dropTarget=0;collapsible=0;recursiveResize=0;expand=0;fontStyle=0;fillColor=none;strokeColor=inherit;" parent="-_8xSM2bTVe2GGrsesYv-15" vertex="1">
          <mxGeometry width="520" height="47" as="geometry" />
        </mxCell>
        <mxCell id="-_8xSM2bTVe2GGrsesYv-17" value="" style="connectable=0;recursiveResize=0;strokeColor=inherit;fillColor=none;align=center;whiteSpace=wrap;html=1;" parent="-_8xSM2bTVe2GGrsesYv-16" vertex="1">
          <mxGeometry width="173" height="47" as="geometry">
            <mxRectangle width="173" height="47" as="alternateBounds" />
          </mxGeometry>
        </mxCell>
        <mxCell id="-_8xSM2bTVe2GGrsesYv-18" value="Price" style="connectable=0;recursiveResize=0;strokeColor=inherit;fillColor=none;align=center;whiteSpace=wrap;html=1;" parent="-_8xSM2bTVe2GGrsesYv-16" vertex="1">
          <mxGeometry x="173" width="174" height="47" as="geometry">
            <mxRectangle width="174" height="47" as="alternateBounds" />
          </mxGeometry>
        </mxCell>
        <mxCell id="-_8xSM2bTVe2GGrsesYv-19" value="Общая цена объекта недвижимости&amp;nbsp;&lt;div&gt;(&quot;За все&quot;)&lt;/div&gt;" style="connectable=0;recursiveResize=0;strokeColor=inherit;fillColor=none;align=center;whiteSpace=wrap;html=1;" parent="-_8xSM2bTVe2GGrsesYv-16" vertex="1">
          <mxGeometry x="347" width="173" height="47" as="geometry">
            <mxRectangle width="173" height="47" as="alternateBounds" />
          </mxGeometry>
        </mxCell>
        <mxCell id="-_8xSM2bTVe2GGrsesYv-20" style="shape=tableRow;horizontal=0;startSize=0;swimlaneHead=0;swimlaneBody=0;top=0;left=0;bottom=0;right=0;dropTarget=0;collapsible=0;recursiveResize=0;expand=0;fontStyle=0;fillColor=none;strokeColor=inherit;" parent="-_8xSM2bTVe2GGrsesYv-15" vertex="1">
          <mxGeometry y="47" width="520" height="46" as="geometry" />
        </mxCell>
        <mxCell id="-_8xSM2bTVe2GGrsesYv-21" value="" style="connectable=0;recursiveResize=0;strokeColor=inherit;fillColor=none;align=center;whiteSpace=wrap;html=1;" parent="-_8xSM2bTVe2GGrsesYv-20" vertex="1">
          <mxGeometry width="173" height="46" as="geometry">
            <mxRectangle width="173" height="46" as="alternateBounds" />
          </mxGeometry>
        </mxCell>
        <mxCell id="-_8xSM2bTVe2GGrsesYv-22" value="&lt;div style=&quot;text-align: start;&quot;&gt;&lt;span style=&quot;background-color: initial;&quot;&gt;Price_&lt;/span&gt;&lt;font color=&quot;#333333&quot;&gt;&lt;span style=&quot;background-color: rgb(255, 255, 255);&quot;&gt;sq_m&lt;/span&gt;&lt;/font&gt;&lt;span style=&quot;background-color: initial;&quot;&gt;&amp;nbsp;&lt;/span&gt;&lt;/div&gt;" style="connectable=0;recursiveResize=0;strokeColor=inherit;fillColor=none;align=center;whiteSpace=wrap;html=1;" parent="-_8xSM2bTVe2GGrsesYv-20" vertex="1">
          <mxGeometry x="173" width="174" height="46" as="geometry">
            <mxRectangle width="174" height="46" as="alternateBounds" />
          </mxGeometry>
        </mxCell>
        <mxCell id="-_8xSM2bTVe2GGrsesYv-23" value="Цена кв.м объекта недвижимости&amp;nbsp;&lt;div&gt;(&quot;За кв.м&quot;)&lt;/div&gt;" style="connectable=0;recursiveResize=0;strokeColor=inherit;fillColor=none;align=center;whiteSpace=wrap;html=1;" parent="-_8xSM2bTVe2GGrsesYv-20" vertex="1">
          <mxGeometry x="347" width="173" height="46" as="geometry">
            <mxRectangle width="173" height="46" as="alternateBounds" />
          </mxGeometry>
        </mxCell>
        <mxCell id="-_8xSM2bTVe2GGrsesYv-24" style="shape=tableRow;horizontal=0;startSize=0;swimlaneHead=0;swimlaneBody=0;top=0;left=0;bottom=0;right=0;dropTarget=0;collapsible=0;recursiveResize=0;expand=0;fontStyle=0;fillColor=none;strokeColor=inherit;" parent="-_8xSM2bTVe2GGrsesYv-15" vertex="1">
          <mxGeometry y="93" width="520" height="47" as="geometry" />
        </mxCell>
        <mxCell id="-_8xSM2bTVe2GGrsesYv-25" value="" style="connectable=0;recursiveResize=0;strokeColor=inherit;fillColor=none;align=center;whiteSpace=wrap;html=1;" parent="-_8xSM2bTVe2GGrsesYv-24" vertex="1">
          <mxGeometry width="173" height="47" as="geometry">
            <mxRectangle width="173" height="47" as="alternateBounds" />
          </mxGeometry>
        </mxCell>
        <mxCell id="-_8xSM2bTVe2GGrsesYv-26" value="Photo" style="connectable=0;recursiveResize=0;strokeColor=inherit;fillColor=none;align=center;whiteSpace=wrap;html=1;" parent="-_8xSM2bTVe2GGrsesYv-24" vertex="1">
          <mxGeometry x="173" width="174" height="47" as="geometry">
            <mxRectangle width="174" height="47" as="alternateBounds" />
          </mxGeometry>
        </mxCell>
        <mxCell id="-_8xSM2bTVe2GGrsesYv-27" value="Фото объекта недвижимости" style="connectable=0;recursiveResize=0;strokeColor=inherit;fillColor=none;align=center;whiteSpace=wrap;html=1;" parent="-_8xSM2bTVe2GGrsesYv-24" vertex="1">
          <mxGeometry x="347" width="173" height="47" as="geometry">
            <mxRectangle width="173" height="47" as="alternateBounds" />
          </mxGeometry>
        </mxCell>
        <mxCell id="-_8xSM2bTVe2GGrsesYv-41" value="Объект Price_filter (Фильтр цены)" style="text;html=1;align=left;verticalAlign=middle;resizable=0;points=[];autosize=1;strokeColor=none;fillColor=none;fontStyle=1" parent="1" vertex="1">
          <mxGeometry x="160" y="1500" width="210" height="30" as="geometry" />
        </mxCell>
        <mxCell id="-_8xSM2bTVe2GGrsesYv-28" value="" style="childLayout=tableLayout;recursiveResize=0;shadow=0;fillColor=none;" parent="1" vertex="1">
          <mxGeometry x="160" y="1530" width="520" height="140" as="geometry" />
        </mxCell>
        <mxCell id="-_8xSM2bTVe2GGrsesYv-29" value="" style="shape=tableRow;horizontal=0;startSize=0;swimlaneHead=0;swimlaneBody=0;top=0;left=0;bottom=0;right=0;dropTarget=0;collapsible=0;recursiveResize=0;expand=0;fontStyle=0;fillColor=none;strokeColor=inherit;" parent="-_8xSM2bTVe2GGrsesYv-28" vertex="1">
          <mxGeometry width="520" height="47" as="geometry" />
        </mxCell>
        <mxCell id="-_8xSM2bTVe2GGrsesYv-30" value="&lt;b&gt;Родительская сущность&lt;/b&gt;" style="connectable=0;recursiveResize=0;strokeColor=inherit;fillColor=none;align=center;whiteSpace=wrap;html=1;" parent="-_8xSM2bTVe2GGrsesYv-29" vertex="1">
          <mxGeometry width="173" height="47" as="geometry">
            <mxRectangle width="173" height="47" as="alternateBounds" />
          </mxGeometry>
        </mxCell>
        <mxCell id="-_8xSM2bTVe2GGrsesYv-31" value="&lt;b&gt;Атрибут&lt;/b&gt;" style="connectable=0;recursiveResize=0;strokeColor=inherit;fillColor=none;align=center;whiteSpace=wrap;html=1;" parent="-_8xSM2bTVe2GGrsesYv-29" vertex="1">
          <mxGeometry x="173" width="174" height="47" as="geometry">
            <mxRectangle width="174" height="47" as="alternateBounds" />
          </mxGeometry>
        </mxCell>
        <mxCell id="-_8xSM2bTVe2GGrsesYv-32" value="&lt;b&gt;Описание&lt;/b&gt;" style="connectable=0;recursiveResize=0;strokeColor=inherit;fillColor=none;align=center;whiteSpace=wrap;html=1;" parent="-_8xSM2bTVe2GGrsesYv-29" vertex="1">
          <mxGeometry x="347" width="173" height="47" as="geometry">
            <mxRectangle width="173" height="47" as="alternateBounds" />
          </mxGeometry>
        </mxCell>
        <mxCell id="-_8xSM2bTVe2GGrsesYv-33" style="shape=tableRow;horizontal=0;startSize=0;swimlaneHead=0;swimlaneBody=0;top=0;left=0;bottom=0;right=0;dropTarget=0;collapsible=0;recursiveResize=0;expand=0;fontStyle=0;fillColor=none;strokeColor=inherit;" parent="-_8xSM2bTVe2GGrsesYv-28" vertex="1">
          <mxGeometry y="47" width="520" height="46" as="geometry" />
        </mxCell>
        <mxCell id="-_8xSM2bTVe2GGrsesYv-34" value="User" style="connectable=0;recursiveResize=0;strokeColor=inherit;fillColor=none;align=center;whiteSpace=wrap;html=1;" parent="-_8xSM2bTVe2GGrsesYv-33" vertex="1">
          <mxGeometry width="173" height="46" as="geometry">
            <mxRectangle width="173" height="46" as="alternateBounds" />
          </mxGeometry>
        </mxCell>
        <mxCell id="-_8xSM2bTVe2GGrsesYv-35" value="Связь с объектом Пользователь" style="connectable=0;recursiveResize=0;strokeColor=inherit;fillColor=none;align=center;whiteSpace=wrap;html=1;" parent="-_8xSM2bTVe2GGrsesYv-33" vertex="1">
          <mxGeometry x="173" width="174" height="46" as="geometry">
            <mxRectangle width="174" height="46" as="alternateBounds" />
          </mxGeometry>
        </mxCell>
        <mxCell id="-_8xSM2bTVe2GGrsesYv-36" value="Пользователь, устанавливающий диапазон цен" style="connectable=0;recursiveResize=0;strokeColor=inherit;fillColor=none;align=center;whiteSpace=wrap;html=1;" parent="-_8xSM2bTVe2GGrsesYv-33" vertex="1">
          <mxGeometry x="347" width="173" height="46" as="geometry">
            <mxRectangle width="173" height="46" as="alternateBounds" />
          </mxGeometry>
        </mxCell>
        <mxCell id="-_8xSM2bTVe2GGrsesYv-37" style="shape=tableRow;horizontal=0;startSize=0;swimlaneHead=0;swimlaneBody=0;top=0;left=0;bottom=0;right=0;dropTarget=0;collapsible=0;recursiveResize=0;expand=0;fontStyle=0;fillColor=none;strokeColor=inherit;" parent="-_8xSM2bTVe2GGrsesYv-28" vertex="1">
          <mxGeometry y="93" width="520" height="47" as="geometry" />
        </mxCell>
        <mxCell id="-_8xSM2bTVe2GGrsesYv-38" value="Price_filter" style="connectable=0;recursiveResize=0;strokeColor=inherit;fillColor=none;align=center;whiteSpace=wrap;html=1;" parent="-_8xSM2bTVe2GGrsesYv-37" vertex="1">
          <mxGeometry width="173" height="47" as="geometry">
            <mxRectangle width="173" height="47" as="alternateBounds" />
          </mxGeometry>
        </mxCell>
        <mxCell id="-_8xSM2bTVe2GGrsesYv-39" value="Min_price" style="connectable=0;recursiveResize=0;strokeColor=inherit;fillColor=none;align=center;whiteSpace=wrap;html=1;" parent="-_8xSM2bTVe2GGrsesYv-37" vertex="1">
          <mxGeometry x="173" width="174" height="47" as="geometry">
            <mxRectangle width="174" height="47" as="alternateBounds" />
          </mxGeometry>
        </mxCell>
        <mxCell id="-_8xSM2bTVe2GGrsesYv-40" value="Минимальная ожидаемая граница стоимости недвижимости&amp;nbsp;&lt;span style=&quot;background-color: initial;&quot;&gt;(&quot;За все&quot;)&lt;/span&gt;" style="connectable=0;recursiveResize=0;strokeColor=inherit;fillColor=none;align=center;whiteSpace=wrap;html=1;" parent="-_8xSM2bTVe2GGrsesYv-37" vertex="1">
          <mxGeometry x="347" width="173" height="47" as="geometry">
            <mxRectangle width="173" height="47" as="alternateBounds" />
          </mxGeometry>
        </mxCell>
        <mxCell id="l0QcBsjx6Cfjp8KnzXEa-27" value="" style="childLayout=tableLayout;recursiveResize=0;shadow=0;fillColor=none;" parent="1" vertex="1">
          <mxGeometry x="160" y="1670" width="520" height="140" as="geometry" />
        </mxCell>
        <mxCell id="l0QcBsjx6Cfjp8KnzXEa-28" value="" style="shape=tableRow;horizontal=0;startSize=0;swimlaneHead=0;swimlaneBody=0;top=0;left=0;bottom=0;right=0;dropTarget=0;collapsible=0;recursiveResize=0;expand=0;fontStyle=0;fillColor=none;strokeColor=inherit;" parent="l0QcBsjx6Cfjp8KnzXEa-27" vertex="1">
          <mxGeometry width="520" height="47" as="geometry" />
        </mxCell>
        <mxCell id="l0QcBsjx6Cfjp8KnzXEa-29" value="" style="connectable=0;recursiveResize=0;strokeColor=inherit;fillColor=none;align=center;whiteSpace=wrap;html=1;" parent="l0QcBsjx6Cfjp8KnzXEa-28" vertex="1">
          <mxGeometry width="173" height="47" as="geometry">
            <mxRectangle width="173" height="47" as="alternateBounds" />
          </mxGeometry>
        </mxCell>
        <mxCell id="l0QcBsjx6Cfjp8KnzXEa-30" value="Max_price" style="connectable=0;recursiveResize=0;strokeColor=inherit;fillColor=none;align=center;whiteSpace=wrap;html=1;" parent="l0QcBsjx6Cfjp8KnzXEa-28" vertex="1">
          <mxGeometry x="173" width="174" height="47" as="geometry">
            <mxRectangle width="174" height="47" as="alternateBounds" />
          </mxGeometry>
        </mxCell>
        <mxCell id="l0QcBsjx6Cfjp8KnzXEa-31" value="Максимальная ожидаемая граница стоимости недвижимости&amp;nbsp;&lt;span style=&quot;background-color: initial;&quot;&gt;(&quot;За все&quot;)&lt;/span&gt;" style="connectable=0;recursiveResize=0;strokeColor=inherit;fillColor=none;align=center;whiteSpace=wrap;html=1;" parent="l0QcBsjx6Cfjp8KnzXEa-28" vertex="1">
          <mxGeometry x="347" width="173" height="47" as="geometry">
            <mxRectangle width="173" height="47" as="alternateBounds" />
          </mxGeometry>
        </mxCell>
        <mxCell id="l0QcBsjx6Cfjp8KnzXEa-32" style="shape=tableRow;horizontal=0;startSize=0;swimlaneHead=0;swimlaneBody=0;top=0;left=0;bottom=0;right=0;dropTarget=0;collapsible=0;recursiveResize=0;expand=0;fontStyle=0;fillColor=none;strokeColor=inherit;" parent="l0QcBsjx6Cfjp8KnzXEa-27" vertex="1">
          <mxGeometry y="47" width="520" height="46" as="geometry" />
        </mxCell>
        <mxCell id="l0QcBsjx6Cfjp8KnzXEa-33" value="" style="connectable=0;recursiveResize=0;strokeColor=inherit;fillColor=none;align=center;whiteSpace=wrap;html=1;" parent="l0QcBsjx6Cfjp8KnzXEa-32" vertex="1">
          <mxGeometry width="173" height="46" as="geometry">
            <mxRectangle width="173" height="46" as="alternateBounds" />
          </mxGeometry>
        </mxCell>
        <mxCell id="l0QcBsjx6Cfjp8KnzXEa-34" value="Min_price&lt;span style=&quot;text-align: start; background-color: initial;&quot;&gt;_&lt;/span&gt;&lt;font style=&quot;text-align: start;&quot; color=&quot;#333333&quot;&gt;&lt;span style=&quot;background-color: rgb(255, 255, 255);&quot;&gt;sq_m&lt;/span&gt;&lt;/font&gt;&lt;span style=&quot;text-align: start; background-color: initial;&quot;&gt;&amp;nbsp;&lt;/span&gt;" style="connectable=0;recursiveResize=0;strokeColor=inherit;fillColor=none;align=center;whiteSpace=wrap;html=1;" parent="l0QcBsjx6Cfjp8KnzXEa-32" vertex="1">
          <mxGeometry x="173" width="174" height="46" as="geometry">
            <mxRectangle width="174" height="46" as="alternateBounds" />
          </mxGeometry>
        </mxCell>
        <mxCell id="l0QcBsjx6Cfjp8KnzXEa-35" value="Минимальная ожидаемая граница стоимости кв.м. недвижимости (&quot;За кв.м&quot;)" style="connectable=0;recursiveResize=0;strokeColor=inherit;fillColor=none;align=center;whiteSpace=wrap;html=1;" parent="l0QcBsjx6Cfjp8KnzXEa-32" vertex="1">
          <mxGeometry x="347" width="173" height="46" as="geometry">
            <mxRectangle width="173" height="46" as="alternateBounds" />
          </mxGeometry>
        </mxCell>
        <mxCell id="l0QcBsjx6Cfjp8KnzXEa-36" style="shape=tableRow;horizontal=0;startSize=0;swimlaneHead=0;swimlaneBody=0;top=0;left=0;bottom=0;right=0;dropTarget=0;collapsible=0;recursiveResize=0;expand=0;fontStyle=0;fillColor=none;strokeColor=inherit;" parent="l0QcBsjx6Cfjp8KnzXEa-27" vertex="1">
          <mxGeometry y="93" width="520" height="47" as="geometry" />
        </mxCell>
        <mxCell id="l0QcBsjx6Cfjp8KnzXEa-37" value="" style="connectable=0;recursiveResize=0;strokeColor=inherit;fillColor=none;align=center;whiteSpace=wrap;html=1;" parent="l0QcBsjx6Cfjp8KnzXEa-36" vertex="1">
          <mxGeometry width="173" height="47" as="geometry">
            <mxRectangle width="173" height="47" as="alternateBounds" />
          </mxGeometry>
        </mxCell>
        <mxCell id="l0QcBsjx6Cfjp8KnzXEa-38" value="&lt;span style=&quot;text-align: start; background-color: initial;&quot;&gt;Max_price_&lt;/span&gt;&lt;font style=&quot;text-align: start;&quot; color=&quot;#333333&quot;&gt;&lt;span style=&quot;background-color: rgb(255, 255, 255);&quot;&gt;sq_m&lt;/span&gt;&lt;/font&gt;&lt;span style=&quot;text-align: start; background-color: initial;&quot;&gt;&amp;nbsp;&lt;/span&gt;" style="connectable=0;recursiveResize=0;strokeColor=inherit;fillColor=none;align=center;whiteSpace=wrap;html=1;" parent="l0QcBsjx6Cfjp8KnzXEa-36" vertex="1">
          <mxGeometry x="173" width="174" height="47" as="geometry">
            <mxRectangle width="174" height="47" as="alternateBounds" />
          </mxGeometry>
        </mxCell>
        <mxCell id="l0QcBsjx6Cfjp8KnzXEa-39" value="Максимальная ожидаемая граница стоимости кв.м. недвижимости (&quot;За кв.м&quot;)" style="connectable=0;recursiveResize=0;strokeColor=inherit;fillColor=none;align=center;whiteSpace=wrap;html=1;" parent="l0QcBsjx6Cfjp8KnzXEa-36" vertex="1">
          <mxGeometry x="347" width="173" height="47" as="geometry">
            <mxRectangle width="173" height="47" as="alternateBounds" />
          </mxGeometry>
        </mxCell>
        <mxCell id="l0QcBsjx6Cfjp8KnzXEa-1" value="" style="childLayout=tableLayout;recursiveResize=0;shadow=0;fillColor=none;" parent="1" vertex="1">
          <mxGeometry x="160" y="1320" width="520" height="140" as="geometry" />
        </mxCell>
        <mxCell id="l0QcBsjx6Cfjp8KnzXEa-2" value="" style="shape=tableRow;horizontal=0;startSize=0;swimlaneHead=0;swimlaneBody=0;top=0;left=0;bottom=0;right=0;dropTarget=0;collapsible=0;recursiveResize=0;expand=0;fontStyle=0;fillColor=none;strokeColor=inherit;" parent="l0QcBsjx6Cfjp8KnzXEa-1" vertex="1">
          <mxGeometry width="520" height="47" as="geometry" />
        </mxCell>
        <mxCell id="l0QcBsjx6Cfjp8KnzXEa-3" value="" style="connectable=0;recursiveResize=0;strokeColor=inherit;fillColor=none;align=center;whiteSpace=wrap;html=1;" parent="l0QcBsjx6Cfjp8KnzXEa-2" vertex="1">
          <mxGeometry width="173" height="47" as="geometry">
            <mxRectangle width="173" height="47" as="alternateBounds" />
          </mxGeometry>
        </mxCell>
        <mxCell id="l0QcBsjx6Cfjp8KnzXEa-4" value="Category" style="connectable=0;recursiveResize=0;strokeColor=inherit;fillColor=none;align=center;whiteSpace=wrap;html=1;" parent="l0QcBsjx6Cfjp8KnzXEa-2" vertex="1">
          <mxGeometry x="173" width="174" height="47" as="geometry">
            <mxRectangle width="174" height="47" as="alternateBounds" />
          </mxGeometry>
        </mxCell>
        <mxCell id="l0QcBsjx6Cfjp8KnzXEa-5" value="Категория объекта недвижимости (Дом/ квартира/ ...)" style="connectable=0;recursiveResize=0;strokeColor=inherit;fillColor=none;align=center;whiteSpace=wrap;html=1;" parent="l0QcBsjx6Cfjp8KnzXEa-2" vertex="1">
          <mxGeometry x="347" width="173" height="47" as="geometry">
            <mxRectangle width="173" height="47" as="alternateBounds" />
          </mxGeometry>
        </mxCell>
        <mxCell id="l0QcBsjx6Cfjp8KnzXEa-6" style="shape=tableRow;horizontal=0;startSize=0;swimlaneHead=0;swimlaneBody=0;top=0;left=0;bottom=0;right=0;dropTarget=0;collapsible=0;recursiveResize=0;expand=0;fontStyle=0;fillColor=none;strokeColor=inherit;" parent="l0QcBsjx6Cfjp8KnzXEa-1" vertex="1">
          <mxGeometry y="47" width="520" height="46" as="geometry" />
        </mxCell>
        <mxCell id="l0QcBsjx6Cfjp8KnzXEa-7" value="" style="connectable=0;recursiveResize=0;strokeColor=inherit;fillColor=none;align=center;whiteSpace=wrap;html=1;" parent="l0QcBsjx6Cfjp8KnzXEa-6" vertex="1">
          <mxGeometry width="173" height="46" as="geometry">
            <mxRectangle width="173" height="46" as="alternateBounds" />
          </mxGeometry>
        </mxCell>
        <mxCell id="l0QcBsjx6Cfjp8KnzXEa-8" value="Area" style="connectable=0;recursiveResize=0;strokeColor=inherit;fillColor=none;align=center;whiteSpace=wrap;html=1;" parent="l0QcBsjx6Cfjp8KnzXEa-6" vertex="1">
          <mxGeometry x="173" width="174" height="46" as="geometry">
            <mxRectangle width="174" height="46" as="alternateBounds" />
          </mxGeometry>
        </mxCell>
        <mxCell id="l0QcBsjx6Cfjp8KnzXEa-9" value="Площадь объекта недвижимости (кв.м.)" style="connectable=0;recursiveResize=0;strokeColor=inherit;fillColor=none;align=center;whiteSpace=wrap;html=1;" parent="l0QcBsjx6Cfjp8KnzXEa-6" vertex="1">
          <mxGeometry x="347" width="173" height="46" as="geometry">
            <mxRectangle width="173" height="46" as="alternateBounds" />
          </mxGeometry>
        </mxCell>
        <mxCell id="l0QcBsjx6Cfjp8KnzXEa-10" style="shape=tableRow;horizontal=0;startSize=0;swimlaneHead=0;swimlaneBody=0;top=0;left=0;bottom=0;right=0;dropTarget=0;collapsible=0;recursiveResize=0;expand=0;fontStyle=0;fillColor=none;strokeColor=inherit;" parent="l0QcBsjx6Cfjp8KnzXEa-1" vertex="1">
          <mxGeometry y="93" width="520" height="47" as="geometry" />
        </mxCell>
        <mxCell id="l0QcBsjx6Cfjp8KnzXEa-11" value="" style="connectable=0;recursiveResize=0;strokeColor=inherit;fillColor=none;align=center;whiteSpace=wrap;html=1;" parent="l0QcBsjx6Cfjp8KnzXEa-10" vertex="1">
          <mxGeometry width="173" height="47" as="geometry">
            <mxRectangle width="173" height="47" as="alternateBounds" />
          </mxGeometry>
        </mxCell>
        <mxCell id="l0QcBsjx6Cfjp8KnzXEa-12" value="Location" style="connectable=0;recursiveResize=0;strokeColor=inherit;fillColor=none;align=center;whiteSpace=wrap;html=1;" parent="l0QcBsjx6Cfjp8KnzXEa-10" vertex="1">
          <mxGeometry x="173" width="174" height="47" as="geometry">
            <mxRectangle width="174" height="47" as="alternateBounds" />
          </mxGeometry>
        </mxCell>
        <mxCell id="l0QcBsjx6Cfjp8KnzXEa-13" value="Адрес объекта недвижимости" style="connectable=0;recursiveResize=0;strokeColor=inherit;fillColor=none;align=center;whiteSpace=wrap;html=1;" parent="l0QcBsjx6Cfjp8KnzXEa-10" vertex="1">
          <mxGeometry x="347" width="173" height="47" as="geometry">
            <mxRectangle width="173" height="47" as="alternateBounds" />
          </mxGeometry>
        </mxCell>
        <mxCell id="l0QcBsjx6Cfjp8KnzXEa-94" style="shape=tableRow;horizontal=0;startSize=0;swimlaneHead=0;swimlaneBody=0;top=0;left=0;bottom=0;right=0;dropTarget=0;collapsible=0;recursiveResize=0;expand=0;fontStyle=0;fillColor=none;strokeColor=inherit;" parent="1" vertex="1">
          <mxGeometry x="160" y="1920" width="520" height="46" as="geometry" />
        </mxCell>
        <mxCell id="l0QcBsjx6Cfjp8KnzXEa-98" style="shape=tableRow;horizontal=0;startSize=0;swimlaneHead=0;swimlaneBody=0;top=0;left=0;bottom=0;right=0;dropTarget=0;collapsible=0;recursiveResize=0;expand=0;fontStyle=0;fillColor=none;strokeColor=inherit;" parent="1" vertex="1">
          <mxGeometry x="160" y="1960" width="520" height="57" as="geometry" />
        </mxCell>
      </root>
    </mxGraphModel>
  </diagram>
</mxfile>
